<svg width="36" height="36" viewBox="0 0 36 36" fill="none" xmlns="http://www.w3.org/2000/svg">
<path d="M20.5778 13.8733C20.0188 14.3272 20.0061 14.9046 20.3055 15.5633C20.4124 15.7965 20.4114 16.0839 20.4297 16.3553C20.4392 16.5656 20.4727 16.707 20.7036 16.7845C22.0654 17.2722 23.4555 17.5637 24.9106 17.3286C25.8005 17.1813 26.5981 16.8375 27.2861 16.2497C27.7274 15.8811 28.0386 15.9338 28.3061 16.4335C29.2678 18.2164 29.7851 20.0872 29.2809 22.1078C28.8266 23.927 27.6162 25.075 25.8861 25.7255C22.8372 26.8719 19.8336 26.0487 17.6328 23.3986C17.0305 22.6738 16.55 21.8569 16.0354 21.0653C15.9103 20.8766 15.7924 20.7667 15.5491 20.7094C15.08 20.5963 14.6406 20.3901 14.1773 20.2527C14.0288 20.2074 13.8201 20.1993 13.704 20.267C12.1537 21.168 11.3209 22.577 10.9792 24.2891C10.8447 24.9586 10.825 25.6525 10.7987 26.3423C10.773 26.8653 10.6568 27.0537 10.1466 27.0824C4.77975 27.4388 2.11004 22.4182 3.76278 18.3567C4.60526 16.2848 6.21861 15.1162 8.31118 14.5407C9.6432 14.1739 11.0028 14.0935 12.375 14.1882C12.5972 14.2046 12.7267 14.1452 12.8943 13.9792C13.2433 13.6094 13.6539 13.3055 14.019 12.9549C14.1357 12.8412 14.2587 12.657 14.2621 12.5011C14.2514 10.878 13.5745 9.52173 12.4154 8.43456C11.846 7.89721 11.1874 7.44415 10.5314 7.00196C9.9788 6.63295 9.91013 6.48836 10.2051 5.89011C12.1627 1.95182 17.1683 1.1123 20.3043 4.21896C22.1427 6.04147 22.5487 8.24307 21.9144 10.685C21.7732 11.2296 21.5834 11.7628 21.36 12.2752C21.1526 12.8067 20.8629 13.3061 20.5778 13.8733ZM12.1741 15.2812C12.1254 15.2697 12.0809 15.2515 12.0281 15.2468C10.7256 15.2045 9.45253 15.3104 8.20954 15.7136C6.5567 16.254 5.32372 17.2579 4.69519 18.923C3.78492 21.3154 4.72549 24.1258 6.86312 25.3433C7.74073 25.848 8.70057 26.0689 9.73692 26.0305C9.78908 24.6971 10.026 23.4405 10.5725 22.2543C11.1206 21.0505 11.9719 20.1081 13.0682 19.4007C11.9924 17.7424 11.9219 17.4202 12.1741 15.2812ZM11.2793 6.18167C13.5719 7.68996 15.2104 9.56552 15.3627 12.4188C16.9198 12.1538 18.2471 12.5923 19.3568 13.7141C20.2002 12.4232 20.7988 11.0925 21.0412 9.6164C21.6572 5.83465 18.5241 3.25002 15.5176 3.40985C13.6018 3.51843 12.2481 4.52221 11.2793 6.18167ZM17.0691 20.7002C17.6861 21.973 18.9342 23.4124 20.0849 24.1971C22.3525 25.7458 25.1903 25.2123 26.7668 24.0581C28.3626 22.888 28.6643 21.2255 28.2822 19.3916C28.1376 18.7078 27.8667 18.0481 27.6466 17.3362C25.206 18.9418 22.7543 18.6544 20.2707 17.7715C19.733 19.3347 18.6741 20.2975 17.0691 20.7002ZM14.5579 19.2149C15.9632 20.1289 17.9276 19.7159 18.8567 18.3013C19.8106 16.8464 19.4059 14.8685 17.9443 13.9104C16.5432 12.9896 14.5477 13.3928 13.6352 14.7804C12.6314 16.3161 13.0316 18.2261 14.5579 19.2149Z" fill="#A7B2BF" stroke="#A0ABB9" stroke-width="0.75" stroke-miterlimit="10"/>
<rect x="2" y="23" width="30" height="12" rx="6" fill="#A7B2BF" stroke="white" stroke-width="2"/>
<path d="M9.52539 26.1064L7.5918 32H6.03418L8.67578 24.8906H9.66699L9.52539 26.1064ZM11.1318 32L9.19336 26.1064L9.03711 24.8906H10.0381L12.6943 32H11.1318ZM11.0439 29.3535V30.501H7.28906V29.3535H11.0439ZM16.332 30.7354V26.7168H17.7383V32H16.415L16.332 30.7354ZM16.4883 29.6514L16.9033 29.6416C16.9033 29.9932 16.8626 30.3203 16.7812 30.623C16.6999 30.9225 16.5778 31.1829 16.415 31.4043C16.2523 31.6224 16.0472 31.7933 15.7998 31.917C15.5524 32.0374 15.2611 32.0977 14.9258 32.0977C14.6686 32.0977 14.431 32.0618 14.2129 31.9902C13.998 31.9154 13.8125 31.7998 13.6562 31.6436C13.5033 31.484 13.3828 31.2806 13.2949 31.0332C13.2103 30.7826 13.168 30.4814 13.168 30.1299V26.7168H14.5742V30.1396C14.5742 30.2959 14.5921 30.4277 14.6279 30.5352C14.667 30.6426 14.7207 30.7305 14.7891 30.7988C14.8574 30.8672 14.9372 30.916 15.0283 30.9453C15.1227 30.9746 15.2269 30.9893 15.3408 30.9893C15.6305 30.9893 15.8584 30.9307 16.0244 30.8135C16.1937 30.6963 16.3125 30.5368 16.3809 30.335C16.4525 30.1299 16.4883 29.902 16.4883 29.6514ZM21.4004 26.7168V27.7129H18.3242V26.7168H21.4004ZM19.0859 25.4131H20.4922V30.4082C20.4922 30.5612 20.5117 30.6784 20.5508 30.7598C20.5931 30.8411 20.6549 30.8981 20.7363 30.9307C20.8177 30.96 20.9202 30.9746 21.0439 30.9746C21.1318 30.9746 21.21 30.9714 21.2783 30.9648C21.3499 30.9551 21.4102 30.9453 21.459 30.9355L21.4639 31.9707C21.3434 32.0098 21.2132 32.0407 21.0732 32.0635C20.9333 32.0863 20.7786 32.0977 20.6094 32.0977C20.3001 32.0977 20.0299 32.0472 19.7988 31.9463C19.571 31.8421 19.3952 31.6761 19.2715 31.4482C19.1478 31.2204 19.0859 30.9209 19.0859 30.5498V25.4131ZM21.8496 29.4121V29.3096C21.8496 28.9222 21.9049 28.5658 22.0156 28.2402C22.1263 27.9115 22.2874 27.6266 22.499 27.3857C22.7106 27.1449 22.971 26.9577 23.2803 26.8242C23.5895 26.6875 23.9443 26.6191 24.3447 26.6191C24.7451 26.6191 25.1016 26.6875 25.4141 26.8242C25.7266 26.9577 25.9886 27.1449 26.2002 27.3857C26.415 27.6266 26.5778 27.9115 26.6885 28.2402C26.7992 28.5658 26.8545 28.9222 26.8545 29.3096V29.4121C26.8545 29.7962 26.7992 30.1527 26.6885 30.4814C26.5778 30.807 26.415 31.0918 26.2002 31.3359C25.9886 31.5768 25.7282 31.764 25.4189 31.8975C25.1097 32.0309 24.7549 32.0977 24.3545 32.0977C23.9541 32.0977 23.5977 32.0309 23.2852 31.8975C22.9759 31.764 22.7139 31.5768 22.499 31.3359C22.2874 31.0918 22.1263 30.807 22.0156 30.4814C21.9049 30.1527 21.8496 29.7962 21.8496 29.4121ZM23.2559 29.3096V29.4121C23.2559 29.6335 23.2754 29.8402 23.3145 30.0322C23.3535 30.2243 23.4154 30.3936 23.5 30.54C23.5879 30.6833 23.7018 30.7956 23.8418 30.877C23.9818 30.9583 24.1527 30.999 24.3545 30.999C24.5498 30.999 24.7174 30.9583 24.8574 30.877C24.9974 30.7956 25.1097 30.6833 25.1943 30.54C25.279 30.3936 25.3408 30.2243 25.3799 30.0322C25.4222 29.8402 25.4434 29.6335 25.4434 29.4121V29.3096C25.4434 29.0947 25.4222 28.8929 25.3799 28.7041C25.3408 28.512 25.2773 28.3428 25.1895 28.1963C25.1048 28.0465 24.9925 27.9294 24.8525 27.8447C24.7126 27.7601 24.5433 27.7178 24.3447 27.7178C24.1462 27.7178 23.9769 27.7601 23.8369 27.8447C23.7002 27.9294 23.5879 28.0465 23.5 28.1963C23.4154 28.3428 23.3535 28.512 23.3145 28.7041C23.2754 28.8929 23.2559 29.0947 23.2559 29.3096Z" fill="white"/>
</svg>
