<svg width="38" height="35" viewBox="0 0 38 35" fill="none" xmlns="http://www.w3.org/2000/svg">
<g filter="url(#filter0_d_139_257)">
<path d="M16.2662 22.9636C15.8718 22.5148 15.4774 22.066 15.0762 21.6036C14.947 21.454 14.7906 21.2704 14.7974 21.0664C14.8314 20.2368 14.8926 19.4072 14.947 18.5368L15.0218 17.3672C15.0218 17.3672 15.7766 17.8704 16.001 18.0132C16.2526 18.1764 16.4906 18.3396 16.7354 18.5028C16.7014 17.8636 16.7218 17.2176 16.8034 16.5784L15.9466 16.0004L16.9462 15.504C16.9666 15.4972 16.9802 15.4904 17.0006 15.4768C17.1842 14.6948 17.4562 13.94 17.8166 13.2328C17.2998 13.498 16.7762 13.7564 16.2322 14.0284L15.2054 14.5384L15.2802 13.3144C15.3278 12.5732 15.3686 11.8728 15.4366 11.1724C15.4706 10.8664 15.6406 10.5196 15.8582 10.3156C16.3614 9.8464 16.885 9.3908 17.4018 8.9352C17.735 8.6428 18.075 8.3504 18.4014 8.058C18.6258 7.8608 18.7482 7.6296 18.755 7.3916C18.7618 7.1808 18.6734 6.9836 18.5102 6.8136C18.3674 6.6708 18.1906 6.5892 18.007 6.5756C17.7894 6.562 17.5582 6.6436 17.3542 6.8136C17.0618 7.0584 16.7762 7.3032 16.4634 7.582L15.5998 8.3232L15.6814 7.106C15.7154 6.6028 15.7494 6.154 15.763 5.7052C15.7766 5.27 15.5794 4.9844 15.1918 4.8688C15.1102 4.8416 15.0354 4.828 14.9606 4.828C14.675 4.8076 14.4506 4.9368 14.2874 5.202C14.1854 5.3652 14.1514 5.61 14.1242 5.848C14.0834 6.2628 14.0562 6.6776 14.0358 7.0924L13.995 7.7452L13.5802 7.8608L13.1926 7.3984C12.9682 7.1264 12.7506 6.8612 12.5194 6.596C12.2882 6.3308 12.0366 6.188 11.7918 6.1676C11.5946 6.154 11.4042 6.2288 11.2342 6.3784C10.7106 6.8408 11.0574 7.3984 11.309 7.684L12.193 8.6972C12.6214 9.1868 13.0498 9.6696 13.4782 10.166C13.6074 10.3224 13.791 10.5332 13.7842 10.7576C13.7502 11.5668 13.6958 12.376 13.6414 13.226L13.5598 14.4024L12.5806 13.7564C12.0026 13.3756 11.4518 13.0152 10.9146 12.6276C10.6766 12.4508 10.4658 12.1652 10.3842 11.8864C10.1802 11.1792 9.99658 10.4652 9.81298 9.7512C9.67698 9.2276 9.54098 8.704 9.39818 8.1804C9.28258 7.7588 9.01058 7.5072 8.65698 7.4868C8.56178 7.48 8.46658 7.4936 8.36458 7.514C7.91578 7.6364 7.69818 8.0784 7.83418 8.6156C7.93618 9.0168 8.43258 10.9684 8.43258 10.9684L7.41938 10.2952C7.01818 10.03 6.65098 9.7784 6.27018 9.5472C6.10018 9.4384 5.93018 9.384 5.76698 9.3704C5.49498 9.35 5.25698 9.4724 5.08698 9.7036C4.95098 9.894 4.89658 10.098 4.93058 10.2952C4.97138 10.5196 5.11418 10.7236 5.35218 10.8936C5.77378 11.186 6.20218 11.4784 6.64418 11.7708L7.54178 12.3692L7.11338 12.5732C7.06578 12.6004 7.02498 12.6208 6.97058 12.6276L5.20258 12.92C4.60418 13.0152 4.28458 13.3688 4.34578 13.8652C4.39338 14.2664 4.67218 14.518 5.11418 14.5452C5.20938 14.552 5.31138 14.5452 5.41338 14.5316C6.15458 14.4228 6.88898 14.314 7.63018 14.1984C8.17418 14.1168 9.35058 13.9332 9.35058 13.9332C9.45938 13.9128 9.58178 13.8924 9.69738 13.8992C9.78578 13.906 9.86058 13.9264 9.92858 13.9672C10.5406 14.348 11.1322 14.7492 11.7578 15.164L12.669 15.776L11.649 16.2792C11.0302 16.592 10.4386 16.8844 9.84698 17.1564C9.72458 17.2108 9.57498 17.2312 9.39818 17.2244C9.29618 17.2176 9.18738 17.1972 9.08538 17.17C8.39858 16.9796 7.71178 16.7824 7.02498 16.5784C6.46738 16.4152 5.90978 16.252 5.34538 16.0956C5.22978 16.0616 5.12098 16.0412 5.01898 16.0344C4.59058 16.0072 4.28458 16.1976 4.17578 16.5784C4.10778 16.796 4.12818 16.9932 4.22338 17.17C4.34578 17.3944 4.58378 17.5576 4.91698 17.6596L7.36498 18.3804L6.17498 18.972C5.65818 19.2236 5.18218 19.4616 4.70618 19.7132C4.30498 19.9308 4.16218 20.3524 4.35258 20.7604C4.47498 21.0324 4.74018 21.2092 5.03938 21.2296C5.15498 21.2364 5.27738 21.2228 5.39298 21.182C5.52898 21.1344 5.65138 21.0664 5.78058 20.9984L5.96418 20.9032L7.88178 19.9784L7.41938 21.114C7.23578 21.556 7.06578 21.964 6.91618 22.3652C6.75978 22.7664 6.85498 23.0792 7.17458 23.324C7.31738 23.4328 7.47378 23.494 7.62338 23.5008C7.79338 23.5144 7.94978 23.46 8.09938 23.3444C8.24898 23.2288 8.39858 23.0112 8.52098 22.7256C8.79978 22.066 9.07178 21.3996 9.33698 20.7332C9.52738 20.264 9.71098 19.8016 9.90818 19.3324C9.99658 19.1284 10.0986 18.8972 10.2958 18.7952C10.9554 18.4484 11.6218 18.122 12.3222 17.7752L13.3762 17.2584L13.3014 18.4416C13.247 19.278 13.1994 20.0736 13.1314 20.8692C13.111 21.1072 12.907 21.3316 12.7846 21.4404C12.2134 21.9504 11.6354 22.4604 11.0574 22.9636L10.4386 23.5076C9.61578 24.2284 9.77218 24.6364 10.0306 24.9424C10.1802 25.1192 10.3434 25.2076 10.527 25.2212C10.799 25.2416 11.1254 25.0852 11.4994 24.7588C11.7102 24.5752 12.975 23.4872 12.975 23.4872L12.8254 25.7992C12.7982 26.2208 12.8594 26.928 13.5666 26.9756H13.587C14.2874 27.0096 14.437 26.3364 14.4642 25.9284C14.4914 25.534 14.6206 23.5348 14.6206 23.5348L15.3414 24.378C15.5998 24.6772 15.8174 24.9356 16.0418 25.1872C16.2798 25.4592 16.545 25.6156 16.7898 25.6292C16.9802 25.6428 17.1638 25.5748 17.327 25.432C17.5038 25.2824 17.599 25.1124 17.6126 24.9152C17.633 24.6704 17.5174 24.3984 17.2862 24.1264C16.9462 23.7456 16.6062 23.3512 16.2662 22.9636Z" fill="#A0ABB9"/>
<path d="M25.8273 26.5472C21.8901 26.5472 19.9521 24.2148 19.0205 22.2428C17.8305 19.7336 17.7897 16.9048 18.9185 14.4772C19.4965 13.2192 20.3261 12.1788 21.3801 11.3968C24.0593 9.4044 23.7057 5.6168 23.6853 5.3856L23.5697 4.692C23.5289 4.42 23.6445 4.148 23.8825 4.0052C24.1137 3.8624 24.4129 3.8692 24.6373 4.0256C26.2013 5.1272 27.9965 7.3168 28.3093 9.0712C28.3977 9.5744 28.4181 10.1388 28.3637 10.744C28.3025 11.4784 28.1393 12.2264 27.8809 12.9676C27.4117 14.3344 27.0853 16.116 27.6021 17.0068C27.8741 17.4828 28.3161 17.7956 28.9145 17.9316C29.6829 18.1084 30.5057 17.9316 30.8933 17.6664C31.4169 17.3128 31.7569 16.1364 31.8453 15.4836C31.8861 15.1844 32.1241 14.9464 32.4233 14.8988C32.7225 14.8512 33.0149 15.0144 33.1441 15.2932C33.5045 16.0956 33.7493 17.2584 33.8649 18.7476C33.9873 20.4 33.5997 22.0048 32.7701 23.2696C31.8113 24.7316 29.8529 26.4792 25.9837 26.5336C25.9157 26.5472 25.8749 26.5472 25.8273 26.5472ZM25.0725 6.2084C25.0521 7.7384 24.6509 10.6624 22.1893 12.4916C21.3189 13.1376 20.6321 14.0012 20.1493 15.0484C19.1973 17.1088 19.2313 19.516 20.2513 21.658C21.3801 24.038 23.2909 25.2212 25.9429 25.1872C28.5745 25.1532 30.4785 24.2556 31.6141 22.5352C32.2805 21.5152 32.5933 20.2096 32.4913 18.8564C32.4641 18.5504 32.4369 18.2512 32.4029 17.9792C32.2057 18.3056 31.9541 18.5912 31.6481 18.802C30.8865 19.3188 29.6625 19.5024 28.6085 19.2644C27.6429 19.04 26.8881 18.5028 26.4257 17.6936C25.5485 16.1704 26.1537 13.804 26.5957 12.5256C26.8201 11.8864 26.9561 11.2472 27.0105 10.6284C27.0513 10.1388 27.0377 9.6968 26.9697 9.3092C26.8133 8.4388 26.0381 7.2148 25.0725 6.2084Z" fill="#A0ABB9"/>
</g>
<defs>
<filter id="filter0_d_139_257" x="-2" y="0" width="42" height="42" filterUnits="userSpaceOnUse" color-interpolation-filters="sRGB">
<feFlood flood-opacity="0" result="BackgroundImageFix"/>
<feColorMatrix in="SourceAlpha" type="matrix" values="0 0 0 0 0 0 0 0 0 0 0 0 0 0 0 0 0 0 127 0" result="hardAlpha"/>
<feOffset dy="4"/>
<feGaussianBlur stdDeviation="2"/>
<feComposite in2="hardAlpha" operator="out"/>
<feColorMatrix type="matrix" values="0 0 0 0 0 0 0 0 0 0 0 0 0 0 0 0 0 0 0.25 0"/>
<feBlend mode="normal" in2="BackgroundImageFix" result="effect1_dropShadow_139_257"/>
<feBlend mode="normal" in="SourceGraphic" in2="effect1_dropShadow_139_257" result="shape"/>
</filter>
</defs>
</svg>
