<svg width="24" height="27" viewBox="0 0 24 27" fill="none" xmlns="http://www.w3.org/2000/svg">
<path d="M11.984 27C11.1413 27 11.0117 26.1394 11.0117 25.6347V22.8131C11.0117 22.8131 9.59371 24.228 9.35873 24.468C8.93738 24.89 8.56466 25.1051 8.24055 25.1051C8.02177 25.1051 7.8192 25.0058 7.62473 24.8072C7.29252 24.4597 7.07374 23.9798 7.99746 23.0365L8.6943 22.3249C9.34252 21.6629 9.99075 21.0092 10.6309 20.339C10.7686 20.1983 10.9955 19.917 11.0036 19.6191C11.0198 18.6509 11.0198 17.6828 11.0198 16.6568V15.2087L9.80438 15.9203C8.9941 16.392 8.23244 16.8471 7.47078 17.3187C7.2439 17.4594 7.13856 17.7407 7.04943 18.0055C6.85497 18.5847 6.6686 19.1722 6.48224 19.7515C6.21485 20.5789 5.94745 21.4064 5.66386 22.2338C5.54231 22.5979 5.38026 22.8627 5.2101 23.0199C5.03994 23.1689 4.85358 23.2433 4.65101 23.2433C4.47274 23.2433 4.28638 23.1771 4.10812 23.0613C3.70298 22.7882 3.57333 22.4159 3.71108 21.9442C3.86503 21.4395 4.02709 20.9347 4.21345 20.3803L4.68342 18.9654L2.47946 20.2397L2.26878 20.3721C2.12293 20.4631 1.97708 20.5541 1.82313 20.6203C1.68538 20.6782 1.54763 20.7113 1.40989 20.7113C1.05336 20.7113 0.729252 20.5127 0.559093 20.19C0.307907 19.7018 0.437551 19.1805 0.89941 18.8909C1.4423 18.5434 1.99329 18.2207 2.58479 17.8731L3.95416 17.0622L0.988541 16.3837C0.583402 16.2927 0.291701 16.1024 0.129645 15.8458C-7.24446e-08 15.639 -0.0324112 15.399 0.0324112 15.126C0.137748 14.6543 0.478066 14.3978 0.996644 14.3978C1.11819 14.3978 1.25593 14.4143 1.39368 14.4392C2.07432 14.5881 2.74685 14.7371 3.42748 14.8943C4.25397 15.0846 5.08856 15.2666 5.92314 15.4487C6.04469 15.4735 6.18243 15.49 6.30398 15.49C6.51465 15.49 6.69291 15.4487 6.83066 15.3742C7.51939 14.9936 8.19193 14.5964 8.90497 14.1661L10.0799 13.471L8.94549 12.8008C8.17572 12.3457 7.43026 11.9071 6.6767 11.4851C6.59568 11.4438 6.50655 11.4189 6.39311 11.4189C6.25536 11.4189 6.10951 11.452 5.97986 11.4851C5.97986 11.4851 4.59429 11.7996 3.95416 11.9402C3.08717 12.1388 2.22017 12.3291 1.34506 12.5195C1.22352 12.5443 1.10198 12.5608 0.988541 12.5608C0.46186 12.5608 0.113439 12.2795 0.0243082 11.7996C-0.0891309 11.1955 0.267392 10.7404 0.972336 10.5832L3.07096 10.1033C3.13578 10.0867 3.1763 10.0619 3.23302 10.0288L3.71918 9.74747L2.6091 9.0855C2.05811 8.7628 1.53143 8.44836 1.00475 8.12565C0.713046 7.94361 0.526682 7.70365 0.461859 7.43886C0.40514 7.1989 0.453756 6.95066 0.599607 6.7107C0.777868 6.41281 1.06147 6.24732 1.38558 6.24732C1.58005 6.24732 1.79072 6.30524 2.00139 6.42109C2.46325 6.6776 2.92511 6.95066 3.41938 7.24027L4.67531 7.97671C4.67531 7.97671 3.92986 5.64327 3.78401 5.17162C3.58144 4.5262 3.80021 3.97181 4.32689 3.78976C4.44033 3.74839 4.55377 3.73184 4.66721 3.73184C5.08856 3.73184 5.43698 4.02145 5.59903 4.51793C5.80971 5.13852 6.01228 5.76739 6.21485 6.38799C6.49034 7.24027 6.76584 8.09255 7.06564 8.93656C7.17908 9.26755 7.44647 9.59853 7.74627 9.78885C8.4107 10.2108 9.09134 10.608 9.81249 11.03L11.0198 11.7416V10.3019C11.0198 9.26754 11.0279 8.27459 11.0036 7.28992C10.9955 7.01686 10.7686 6.76862 10.5985 6.59485C10.0475 6.0239 9.50458 5.46951 8.95359 4.90683L7.8192 3.74839C7.49509 3.41741 7.04943 2.77199 7.63284 2.16794C7.8273 1.96935 8.04608 1.87006 8.28106 1.87006C8.57276 1.87006 8.88877 2.02728 9.18047 2.33344C9.47217 2.63132 9.75577 2.94576 10.0475 3.25192L10.5417 3.78976L11.0198 3.616V2.81336C11.0198 2.30861 11.0117 1.80386 11.0279 1.29911C11.036 1.0095 11.0603 0.711616 11.1657 0.504751C11.3358 0.173767 11.6032 0 11.9354 0C12.0246 0 12.1218 0.00827456 12.219 0.0330983C12.6971 0.148943 12.9483 0.471652 12.9645 1.0095C12.9807 1.55562 12.9807 2.10175 12.9726 2.71407V4.20349L13.9368 3.21882C14.2933 2.85474 14.6093 2.53203 14.9335 2.21759C15.1603 2.00245 15.4277 1.87833 15.687 1.87833C15.9139 1.87833 16.1246 1.96108 16.3028 2.12657C16.5135 2.31689 16.635 2.55685 16.6431 2.80509C16.6512 3.0947 16.5297 3.38431 16.2785 3.64082C15.9058 4.02973 15.5331 4.41036 15.1603 4.79099C14.5769 5.38676 13.9935 5.97426 13.4263 6.58658C13.1751 6.85964 13.005 7.28992 12.9888 7.66227C12.9564 8.51456 12.9645 9.37512 12.9645 10.277V11.7665L14.1475 11.0714C14.974 10.5832 15.768 10.1198 16.5378 9.63163C16.7566 9.49923 16.8457 9.2179 16.9186 8.98621C17.186 8.1753 17.4291 7.41404 17.6803 6.66105L18.2961 4.76617C18.369 4.54275 18.442 4.33589 18.5554 4.15385C18.7175 3.90561 19.0173 3.74839 19.3414 3.74839C19.4872 3.74839 19.6331 3.78149 19.7546 3.84769C20.2003 4.0711 20.4028 4.5593 20.2489 5.06405C20.0949 5.5688 19.9329 6.06528 19.7465 6.61968L19.2847 8.02636C19.2847 8.02636 21.4319 6.76862 21.8532 6.52866C22.1287 6.37144 22.3961 6.28869 22.6311 6.28869C22.9633 6.28869 23.2307 6.45418 23.4009 6.76034C23.7979 7.46368 23.3117 7.96016 22.8418 8.2415C22.3556 8.53938 21.8613 8.82899 21.3266 9.14343L20.0301 9.90469L22.9633 10.5915C23.7169 10.7652 24.0734 11.2203 23.9519 11.8327C23.8546 12.3126 23.5062 12.5774 22.9795 12.5774C22.8499 12.5774 22.704 12.5608 22.5582 12.5277C22.0153 12.4119 21.4643 12.2878 20.9214 12.1554C19.9977 11.9485 19.0821 11.7334 18.1584 11.5513C18.0611 11.5348 17.9477 11.5182 17.8424 11.5182C17.5426 11.5182 17.2184 11.5927 16.9754 11.7251C16.3514 12.0478 15.7437 12.4119 15.1036 12.8008L13.953 13.4876L15.1117 14.1744C15.8572 14.6212 16.5783 15.0515 17.3076 15.4569C17.4048 15.5066 17.5101 15.5314 17.6479 15.5314C17.8099 15.5314 17.972 15.4983 18.1098 15.4652C18.8147 15.308 19.5196 15.1508 20.2327 14.9936C21.0349 14.8115 21.837 14.6295 22.6392 14.4557C22.7689 14.4309 22.8904 14.4143 23.0119 14.4143C23.5305 14.4143 23.8789 14.6874 23.9762 15.1673C24.0977 15.7714 23.7493 16.2348 23.0444 16.392L20.9457 16.8719C20.8728 16.8884 20.8242 16.9298 20.7756 16.9629L20.3623 17.2443L21.44 17.8897C21.9262 18.1793 22.4123 18.4606 22.8904 18.7502C23.3685 19.0398 23.8627 19.528 23.4819 20.2314C23.3036 20.5541 23.0444 20.7196 22.7121 20.7196C22.4691 20.7196 22.1855 20.6286 21.8938 20.4548L19.3171 18.9571L19.7141 20.1983C19.9005 20.7775 20.0706 21.2988 20.2327 21.8284C20.4272 22.449 20.2165 22.9785 19.706 23.1689C19.5845 23.2185 19.4629 23.2351 19.3414 23.2351C18.9281 23.2351 18.5797 22.9537 18.4177 22.4821C18.2151 21.878 18.0206 21.274 17.8181 20.6699C17.5345 19.8011 17.2509 18.924 16.9429 18.0634C16.8052 17.6911 16.4973 17.3104 16.1408 17.0788C15.5169 16.6733 14.8767 16.301 14.1961 15.9038C13.9206 15.7466 12.9807 15.1922 12.9807 15.1922V16.6237C12.9807 17.6828 12.9807 18.7006 12.9969 19.7101C13.005 19.9666 13.2076 20.1735 13.3696 20.3472C13.8801 20.8768 14.3825 21.3898 14.8929 21.9029C15.3305 22.3497 15.768 22.7965 16.1975 23.2433C16.4973 23.5495 16.6512 23.8722 16.6512 24.1701C16.6512 24.4101 16.5459 24.6252 16.3514 24.8155C16.1651 25.0058 15.9544 25.0968 15.7275 25.0968C15.4277 25.0968 15.1117 24.9314 14.8038 24.6169C14.5202 24.3273 14.2366 24.0294 13.9044 23.6902L12.9807 22.722C12.9807 22.722 12.9807 25.163 12.9807 25.643C12.9807 26.1394 12.851 26.9669 12.0164 26.9835H11.984V27Z" fill="#48C2FF"/>
</svg>
