<svg width="24" height="21" viewBox="0 0 24 21" fill="none" xmlns="http://www.w3.org/2000/svg">
<path d="M10.2898 1.96274L1.81978 16.1027C1.64514 16.4052 1.55274 16.748 1.55177 17.0973C1.55079 17.4465 1.64127 17.7899 1.8142 18.0933C1.98714 18.3967 2.2365 18.6495 2.53748 18.8266C2.83847 19.0037 3.18058 19.0989 3.52978 19.1027H20.4698C20.819 19.0989 21.1611 19.0037 21.4621 18.8266C21.7631 18.6495 22.0124 18.3967 22.1854 18.0933C22.3583 17.7899 22.4488 17.4465 22.4478 17.0973C22.4468 16.748 22.3544 16.4052 22.1798 16.1027L13.7098 1.96274C13.5315 1.66885 13.2805 1.42586 12.981 1.25723C12.6814 1.08859 12.3435 1 11.9998 1C11.656 1 11.3181 1.08859 11.0186 1.25723C10.7191 1.42586 10.468 1.66885 10.2898 1.96274V1.96274Z" stroke="#A7B2BF" stroke-width="2" stroke-linecap="round" stroke-linejoin="round"/>
<path d="M12 7.10272V11.1027" stroke="#A7B2BF" stroke-width="2" stroke-linecap="round" stroke-linejoin="round"/>
<path d="M12 15.1027H12.01" stroke="#A7B2BF" stroke-width="2" stroke-linecap="round" stroke-linejoin="round"/>
</svg>
