<svg width="28" height="27" viewBox="0 0 28 27" fill="none" xmlns="http://www.w3.org/2000/svg">
<path d="M18.4508 12.8733C17.8919 13.3272 17.8791 13.9046 18.1786 14.5633C18.2854 14.7965 18.2845 15.0839 18.3027 15.3553C18.3123 15.5656 18.3457 15.707 18.5766 15.7845C19.9385 16.2722 21.3286 16.5637 22.7836 16.3286C23.6736 16.1813 24.4711 15.8375 25.1592 15.2497C25.6004 14.8811 25.9116 14.9338 26.1792 15.4335C27.1409 17.2164 27.6581 19.0872 27.1539 21.1078C26.6997 22.927 25.4893 24.075 23.7591 24.7255C20.7102 25.8719 17.7066 25.0487 15.5058 22.3986C14.9035 21.6738 14.4231 20.8569 13.9084 20.0653C13.7834 19.8766 13.6654 19.7667 13.4221 19.7094C12.9531 19.5963 12.5137 19.3901 12.0504 19.2527C11.9018 19.2074 11.6931 19.1993 11.577 19.267C10.0267 20.168 9.19398 21.577 8.85229 23.2891C8.71771 23.9586 8.69807 24.6525 8.6717 25.3423C8.64608 25.8653 8.5298 26.0537 8.01965 26.0824C2.65279 26.4388 -0.016912 21.4182 1.63583 17.3567C2.47831 15.2848 4.09166 14.1162 6.18423 13.5407C7.51625 13.1739 8.87581 13.0935 10.2481 13.1882C10.4702 13.2046 10.5998 13.1452 10.7673 12.9792C11.1164 12.6094 11.527 12.3055 11.8921 11.9549C12.0088 11.8412 12.1318 11.657 12.1351 11.5011C12.1245 9.87801 11.4475 8.52173 10.2885 7.43456C9.71907 6.89721 9.06046 6.44415 8.40441 6.00196C7.85184 5.63295 7.78317 5.48836 8.0782 4.89011C10.0358 0.95182 15.0413 0.1123 18.1773 3.21896C20.0158 5.04147 20.4217 7.24307 19.7874 9.68502C19.6463 10.2296 19.4565 10.7628 19.2331 11.2752C19.0256 11.8067 18.7359 12.3061 18.4508 12.8733ZM10.0471 14.2812C9.99845 14.2697 9.95394 14.2515 9.90112 14.2468C8.5987 14.2045 7.32558 14.3104 6.08259 14.7136C4.42975 15.254 3.19677 16.2579 2.56824 17.923C1.65797 20.3154 2.59854 23.1258 4.73617 24.3433C5.61377 24.848 6.57362 25.0689 7.60996 25.0305C7.66212 23.6971 7.89906 22.4405 8.44558 21.2543C8.99369 20.0505 9.8449 19.1081 10.9413 18.4007C9.86541 16.7424 9.79492 16.4202 10.0471 14.2812ZM9.15239 5.18167C11.445 6.68996 13.0834 8.56552 13.2357 11.4188C14.7929 11.1538 16.1201 11.5923 17.2299 12.7141C18.0733 11.4232 18.6718 10.0925 18.9142 8.6164C19.5303 4.83465 16.3972 2.25002 13.3906 2.40985C11.4748 2.51843 10.1212 3.52221 9.15239 5.18167ZM14.9421 19.7002C15.5592 20.973 16.8073 22.4124 17.9579 23.1971C20.2256 24.7458 23.0633 24.2123 24.6399 23.0581C26.2356 21.888 26.5373 20.2255 26.1552 18.3916C26.0107 17.7078 25.7397 17.0481 25.5196 16.3362C23.0791 17.9418 20.6273 17.6544 18.1438 16.7715C17.606 18.3347 16.5471 19.2975 14.9421 19.7002ZM12.431 18.2149C13.8362 19.1289 15.8006 18.7159 16.7297 17.3013C17.6837 15.8464 17.279 13.8685 15.8173 12.9104C14.4162 11.9896 12.4207 12.3928 11.5083 13.7804C10.5045 15.3161 10.9046 17.2261 12.431 18.2149Z" fill="#A7B2BF" stroke="#A7B2BF" stroke-width="0.75" stroke-miterlimit="10"/>
</svg>
