<svg width="36" height="32" viewBox="0 0 36 32" fill="none" xmlns="http://www.w3.org/2000/svg">
<path d="M18.4187 12.4178C17.9184 12.8241 17.907 13.3409 18.175 13.9305C18.2707 14.1392 18.2698 14.3965 18.2862 14.6394C18.2947 14.8276 18.3247 14.9542 18.5313 15.0236C19.7503 15.4602 20.9946 15.7211 22.297 15.5107C23.0936 15.3788 23.8074 15.0711 24.4233 14.5449C24.8183 14.215 25.0968 14.2622 25.3363 14.7094C26.1971 16.3053 26.6601 17.9798 26.2088 19.7884C25.8022 21.4168 24.7188 22.4443 23.1701 23.0266C20.4411 24.0527 17.7526 23.3159 15.7827 20.9439C15.2436 20.295 14.8135 19.5638 14.3529 18.8553C14.2409 18.6864 14.1354 18.588 13.9176 18.5367C13.4977 18.4355 13.1045 18.2509 12.6898 18.1279C12.5568 18.0874 12.37 18.0802 12.266 18.1408C10.8784 18.9472 10.133 20.2084 9.8272 21.7409C9.70673 22.3401 9.68915 22.9613 9.66555 23.5787C9.64262 24.0468 9.53854 24.2154 9.0819 24.2412C4.2781 24.5601 1.88847 20.0662 3.36782 16.4309C4.12192 14.5763 5.56601 13.5303 7.43904 13.0152C8.63131 12.6869 9.84825 12.615 11.0765 12.6997C11.2754 12.7144 11.3914 12.6612 11.5413 12.5126C11.8537 12.1817 12.2213 11.9096 12.5481 11.5958C12.6525 11.494 12.7626 11.3291 12.7656 11.1896C12.7561 9.73678 12.1501 8.52279 11.1127 7.54968C10.603 7.0687 10.0135 6.66317 9.4263 6.26737C8.9317 5.93707 8.87024 5.80765 9.13431 5.27217C10.8865 1.74705 15.3669 0.995607 18.1739 3.77635C19.8195 5.40765 20.1829 7.37828 19.6151 9.56404C19.4888 10.0515 19.3189 10.5287 19.1189 10.9874C18.9332 11.4632 18.6739 11.9101 18.4187 12.4178ZM10.8967 13.678C10.8531 13.6678 10.8133 13.6515 10.766 13.6472C9.6002 13.6094 8.46065 13.7042 7.34806 14.0651C5.86863 14.5487 4.765 15.4474 4.20241 16.9378C3.38764 19.0792 4.22953 21.5947 6.1429 22.6845C6.92843 23.1362 7.78758 23.334 8.7152 23.2996C8.76189 22.106 8.97396 20.9813 9.46315 19.9196C9.95376 18.842 10.7157 17.9985 11.697 17.3653C10.734 15.881 10.6709 15.5926 10.8967 13.678ZM10.0958 5.53314C12.1479 6.88319 13.6144 8.56198 13.7508 11.1159C15.1445 10.8787 16.3325 11.2712 17.3259 12.2753C18.0808 11.1198 18.6165 9.92881 18.8335 8.60753C19.3849 5.22253 16.5805 2.90905 13.8894 3.05212C12.1746 3.14931 10.9629 4.04778 10.0958 5.53314ZM15.2781 18.5285C15.8304 19.6678 16.9476 20.9562 17.9775 21.6586C20.0073 23.0448 22.5473 22.5672 23.9585 21.5342C25.3868 20.4867 25.6569 18.9987 25.3148 17.3572C25.1855 16.7451 24.9429 16.1547 24.7459 15.5175C22.5614 16.9546 20.3669 16.6974 18.1439 15.907C17.6626 17.3063 16.7147 18.168 15.2781 18.5285ZM13.0304 17.199C14.2882 18.0171 16.0466 17.6474 16.8782 16.3813C17.7321 15.079 17.3698 13.3086 16.0615 12.451C14.8074 11.6269 13.0213 11.9877 12.2045 13.2298C11.306 14.6043 11.6642 16.314 13.0304 17.199Z" fill="#A0ABB9" stroke="#A0ABB9" stroke-width="0.75" stroke-miterlimit="10"/>
<circle cx="27" cy="21" r="9" fill="white"/>
<path d="M30.5361 19C31.2352 19.6555 31.7113 20.4906 31.904 21.3996C32.0968 22.3087 31.9977 23.251 31.6192 24.1072C31.2408 24.9635 30.5999 25.6954 29.7777 26.2103C28.9555 26.7252 27.9888 27 27 27C26.0112 27 25.0445 26.7252 24.2223 26.2103C23.4001 25.6954 22.7592 24.9635 22.3808 24.1072C22.0023 23.251 21.9032 22.3087 22.096 21.3996C22.2888 20.4906 22.7648 19.6555 23.4639 19" stroke="#A0ABB9" stroke-width="2" stroke-linecap="round" stroke-linejoin="round"/>
<path d="M27 15V21" stroke="#A0ABB9" stroke-width="2" stroke-linecap="round" stroke-linejoin="round"/>
</svg>
