<svg width="21" height="30" viewBox="0 0 21 30" fill="none" xmlns="http://www.w3.org/2000/svg">
<path d="M8.3471 1.93032C8.3471 1.93032 9.04675 7.64639 4.95652 10.6789C3.52135 11.7434 2.58849 13.0852 1.98751 14.3912C0.597195 17.3789 0.704832 20.8676 2.12206 23.8464C3.34195 26.4137 5.74586 29.0615 10.455 28.9989C15.0206 28.9363 17.4156 27.013 18.6713 25.1077C19.7118 23.5244 20.1155 21.6101 19.972 19.7136C19.8733 18.4434 19.6491 16.6812 19.1019 15.4646C19.1019 15.4646 18.7521 18.0945 17.4604 18.9622C16.2136 19.8031 13.128 20.0088 11.8453 17.7993C10.8228 16.0282 11.7287 12.9331 12.1413 11.7434C12.4463 10.8667 12.6526 9.96323 12.7333 9.03291C12.7872 8.40674 12.7872 7.72689 12.6705 7.06494C12.3207 5.07907 10.1769 2.39547 8.19462 1L8.3471 1.93032Z" stroke="#FF5E3B" stroke-width="2" stroke-miterlimit="10" stroke-linecap="round" stroke-linejoin="round"/>
</svg>
