<svg width="34" height="34" viewBox="0 0 34 34" fill="none" xmlns="http://www.w3.org/2000/svg">
<path d="M10.2715 3.8319C12.5949 2.50988 15.2482 1.88068 17.9179 2.01867C20.5875 2.15667 23.1618 3.05609 25.3365 4.61063" stroke="#A0ABB9" stroke-width="1.7"/>
<path d="M18.1196 5.03891C20.5114 5.24061 22.7716 6.2191 24.5554 7.82512C26.3392 9.43115 27.5487 11.5765 27.9995 13.9341" stroke="#A0ABB9" stroke-width="1.7"/>
<path d="M31.1948 16.088C31.178 18.7611 30.3962 21.3736 28.9419 23.6165C27.4876 25.8595 25.4215 27.6392 22.9879 28.7453" stroke="#A0ABB9" stroke-width="1.7"/>
<path d="M26.2258 22.2811C24.8553 24.2516 22.8778 25.7197 20.595 26.4615C18.3123 27.2033 15.8495 27.1781 13.5824 26.3897" stroke="#A0ABB9" stroke-width="1.7"/>
<path d="M10.1189 28.0802C7.81233 26.7291 5.94076 24.7458 4.72545 22.3648C3.51014 19.9839 3.0019 17.3047 3.26081 14.6441" stroke="#A0ABB9" stroke-width="1.7"/>
<path d="M7.23999 20.6802C6.21878 18.508 5.9361 16.0614 6.43505 13.7136C6.934 11.3657 8.18721 9.24552 10.0035 7.67635" stroke="#A0ABB9" stroke-width="1.7"/>
<circle cx="17.1953" cy="16" r="3.15" stroke="#A0ABB9" stroke-width="1.7"/>
<circle cx="17.1951" cy="16" r="7.15" stroke="#A0ABB9" stroke-width="1.7"/>
</svg>
