<svg width="22" height="12" viewBox="0 0 22 12" fill="none" xmlns="http://www.w3.org/2000/svg">
<g clip-path="url(#clip0_317_362)">
<path d="M5.74992 0.749997C5.08772 0.729325 4.42829 0.844518 3.81232 1.08848C3.19634 1.33243 2.63686 1.69998 2.16838 2.16846C1.69991 2.63694 1.33236 3.19641 1.0884 3.81239C0.844442 4.42837 0.729248 5.08779 0.749921 5.75C0.729248 6.4122 0.844442 7.07162 1.0884 7.6876C1.33236 8.30358 1.69991 8.86306 2.16838 9.33153C2.63686 9.80001 3.19634 10.1676 3.81232 10.4115C4.42829 10.6555 5.08772 10.7707 5.74992 10.75C7.72492 10.75 9.29992 9.35 10.7499 7.7C12.1999 9.35 13.7249 10.75 15.7499 10.75C16.4121 10.7707 17.0715 10.6555 17.6875 10.4115C18.3035 10.1676 18.863 9.80001 19.3315 9.33153C19.7999 8.86306 20.1675 8.30358 20.4114 7.6876C20.6554 7.07162 20.7706 6.4122 20.7499 5.75C20.7706 5.08779 20.6554 4.42837 20.4114 3.81239C20.1675 3.19641 19.7999 2.63694 19.3315 2.16846C18.863 1.69998 18.3035 1.33243 17.6875 1.08848C17.0715 0.844518 16.4121 0.729325 15.7499 0.749997C13.7249 0.749997 12.1999 2.15 10.7499 3.8C9.29992 2.15 7.72492 0.749997 5.74992 0.749997ZM5.74992 3.25C6.79992 3.25 7.94992 4.425 9.09992 5.75C7.94992 7.075 6.79992 8.25 5.74992 8.25C5.41582 8.27243 5.08079 8.22313 4.7673 8.10543C4.45382 7.98773 4.16914 7.80433 3.93236 7.56756C3.69558 7.33078 3.51219 7.0461 3.39449 6.73261C3.27678 6.41913 3.22749 6.0841 3.24992 5.75C3.22749 5.4159 3.27678 5.08086 3.39449 4.76738C3.51219 4.4539 3.69558 4.16921 3.93236 3.93244C4.16914 3.69566 4.45382 3.51227 4.7673 3.39456C5.08079 3.27686 5.41582 3.22757 5.74992 3.25ZM15.7499 3.25C16.084 3.22757 16.4191 3.27686 16.7325 3.39456C17.046 3.51227 17.3307 3.69566 17.5675 3.93244C17.8043 4.16921 17.9876 4.4539 18.1054 4.76738C18.2231 5.08086 18.2723 5.4159 18.2499 5.75C18.2723 6.0841 18.2231 6.41913 18.1054 6.73261C17.9876 7.0461 17.8043 7.33078 17.5675 7.56756C17.3307 7.80433 17.046 7.98773 16.7325 8.10543C16.4191 8.22313 16.084 8.27243 15.7499 8.25C14.6749 8.25 13.5249 7.075 12.3999 5.75C13.5499 4.425 14.6749 3.25 15.7499 3.25Z" fill="#A7B2BF" stroke="white" stroke-width="1.5"/>
</g>
<defs>
<clipPath id="clip0_317_362">
<rect width="21.5" height="11.5" fill="white"/>
</clipPath>
</defs>
</svg>
