<svg width="23" height="25" viewBox="0 0 23 25" fill="none" xmlns="http://www.w3.org/2000/svg">
<path d="M19 11.125H3.25C2.00736 11.125 1 12.1324 1 13.375V21.25C1 22.4926 2.00736 23.5 3.25 23.5H19C20.2426 23.5 21.25 22.4926 21.25 21.25V13.375C21.25 12.1324 20.2426 11.125 19 11.125Z" stroke="#8B9EB0" stroke-width="2" stroke-linecap="round" stroke-linejoin="round"/>
<path d="M5.5 11.125V6.625C5.5 5.13316 6.09263 3.70242 7.14752 2.64752C8.20242 1.59263 9.63316 1 11.125 1C12.6168 1 14.0476 1.59263 15.1025 2.64752C16.1574 3.70242 16.75 5.13316 16.75 6.625V11.125" stroke="#8B9EB0" stroke-width="2" stroke-linecap="round" stroke-linejoin="round"/>
</svg>
