<svg width="30" height="31" viewBox="0 0 30 31" fill="none" xmlns="http://www.w3.org/2000/svg">
<path d="M19.5182 13.1898C18.9173 13.5866 18.8478 14.1599 19.081 14.8448C19.1644 15.0874 19.1352 15.3734 19.1267 15.6452C19.1155 15.8554 19.1349 15.9995 19.357 16.0993C20.6643 16.7187 22.019 17.1455 23.4901 17.0547C24.3902 16.9956 25.2177 16.732 25.9603 16.2147C26.4356 15.8912 26.7401 15.9743 26.9572 16.4979C27.7389 18.3667 28.0696 20.2794 27.369 22.2406C26.7381 24.0063 25.4206 25.0296 23.6348 25.5068C20.488 26.3476 17.5799 25.233 15.6505 22.3793C15.1224 21.5987 14.7246 20.7385 14.2903 19.9002C14.1844 19.7001 14.0779 19.5791 13.8414 19.4981C13.3858 19.3394 12.9688 19.091 12.5213 18.9087C12.3779 18.849 12.171 18.8204 12.0488 18.8764C10.4174 19.6205 9.45007 20.9407 8.94161 22.6109C8.74183 23.2639 8.65401 23.9525 8.55991 24.6364C8.48297 25.1543 8.34873 25.3303 7.83821 25.3088C2.46234 25.1354 0.299475 19.8766 2.34374 15.9974C3.38595 14.0184 5.10643 13.0142 7.24547 12.6474C8.6071 12.4134 9.96798 12.4671 11.3243 12.6963C11.5437 12.7345 11.6785 12.6881 11.8615 12.5394C12.2453 12.2058 12.6838 11.9437 13.0816 11.6307C13.2089 11.529 13.3495 11.3578 13.3681 11.203C13.5172 9.58677 12.9769 8.17046 11.9305 6.97456C11.4167 6.3838 10.8058 5.86814 10.1965 5.36356C9.6829 4.94198 9.62879 4.79134 9.98123 4.22501C12.3168 0.498399 17.3806 0.155361 20.1958 3.55545C21.846 5.54997 22.0334 7.78083 21.162 10.1485C20.9679 10.6766 20.7266 11.1885 20.4539 11.6764C20.1952 12.185 19.8578 12.6534 19.5182 13.1898ZM11.0168 13.7642C10.9695 13.748 10.927 13.7256 10.8749 13.7156C9.58292 13.5455 8.30556 13.5256 7.02894 13.8045C5.33096 14.1797 4.0052 15.0575 3.21591 16.6527C2.07471 18.9439 2.73426 21.8332 4.74175 23.2551C5.56545 23.8436 6.4989 24.1579 7.534 24.2217C7.71708 22.8998 8.07648 21.6726 8.73704 20.546C9.40092 19.4019 10.3407 18.5478 11.5013 17.9517C10.5938 16.1957 10.5554 15.8681 11.0168 13.7642ZM11.0215 4.62083C13.1546 6.34733 14.6006 8.37497 14.4715 11.2294C16.0472 11.1189 17.3248 11.6858 18.3188 12.9113C19.2852 11.7096 20.0117 10.4443 20.3982 8.9992C21.3832 5.2964 18.5196 2.41609 15.5119 2.27938C13.5947 2.19897 12.1488 3.06472 11.0215 4.62083ZM15.355 19.6385C15.8438 20.9658 16.9442 22.5211 18.0121 23.4151C20.1164 25.1794 22.9929 24.9276 24.6753 23.9341C26.3784 22.9266 26.8423 21.3019 26.6424 19.4393C26.5658 18.7446 26.3611 18.0615 26.2121 17.3314C23.6254 18.6891 21.2138 18.1619 18.8292 17.0389C18.1403 18.5417 16.9918 19.3956 15.355 19.6385ZM13.0021 17.9133C14.3106 18.9612 16.3061 18.7434 17.3698 17.4271C18.4623 16.0731 18.2541 14.065 16.8938 12.9677C15.5901 11.9136 13.5646 12.1185 12.5201 13.4096C11.3701 14.8391 11.5804 16.7792 13.0021 17.9133Z" fill="#A0ABB9" stroke="#A0ABB9" stroke-width="0.75" stroke-miterlimit="10"/>
<path d="M15.1548 29.2286C19.9123 29.2286 24.1155 26.8556 26.6454 23.2286M15.1548 1.22864C19.9123 1.22864 24.1155 3.60167 26.6454 7.22864M2.50205 21.2286C1.63817 19.4101 1.15479 17.3758 1.15479 15.2286C1.15479 11.9586 2.27592 8.95038 4.15479 6.56744" stroke="#A0ABB9" stroke-width="1.7"/>
</svg>
