<svg width="8" height="15" viewBox="0 0 8 15" fill="none" xmlns="http://www.w3.org/2000/svg">
<path d="M4.56524 3.11408H7.20024C7.51173 3.11408 7.76548 3.34442 7.76548 3.62962C7.76548 3.91481 7.51293 4.14516 7.20024 4.14516H4.56524C4.25376 4.14516 4 3.91481 4 3.62962C4 3.34442 4.25256 3.11408 4.56524 3.11408ZM5.92904 8.15539V6.45302H4.9068V8.70713L5.43596 8.97258C6.38725 9.45082 6.97775 10.3634 6.97775 11.3517C6.97775 12.849 5.64161 14.0676 4 14.0676C2.35839 14.0676 1.02225 12.849 1.02225 11.3517C1.02225 10.3623 1.61275 9.45082 2.56404 8.97258L3.09321 8.70713V1.75942C3.09321 1.30311 3.4997 0.932358 4 0.932358C4.5003 0.932358 4.9068 1.30311 4.9068 1.75942V2.67532H5.92904V1.75942C5.92904 0.787569 5.06554 0 4 0C2.93446 0 2.07096 0.787569 2.07096 1.75942V8.15539C0.835839 8.77733 0 9.97514 0 11.3517C0 13.3667 1.79074 15 4 15C6.20926 15 8 13.3667 8 11.3517C8 9.97514 7.16416 8.77733 5.92904 8.15539ZM4.56524 4.87349C4.25376 4.87349 4 5.10384 4 5.38903C4 5.67313 4.25256 5.90457 4.56524 5.90457H6.5893C6.90078 5.90457 7.15454 5.67422 7.15454 5.38903C7.15454 5.10494 6.90198 4.87349 6.5893 4.87349H4.56524Z" fill="#8195AE"/>
</svg>
